<?xml version="1.0" standalone="no"?>
<!DOCTYPE svg PUBLIC "-//W3C//DTD SVG 20010904//EN"
 "http://www.w3.org/TR/2001/REC-SVG-20010904/DTD/svg10.dtd">
<svg version="1.0" xmlns="http://www.w3.org/2000/svg"
 width="650.000000pt" height="530.000000pt" viewBox="0 0 650.000000 530.000000"
 preserveAspectRatio="xMidYMid meet">

<g transform="translate(0.000000,530.000000) scale(0.100000,-0.100000)"
fill="#000000" stroke="none">
<path d="M3115 4560 c-163 -11 -353 -53 -495 -110 -115 -45 -311 -155 -416
-233 -60 -45 -162 -133 -228 -197 -312 -304 -463 -565 -544 -939 -26 -124 -27
-132 -27 -486 0 -292 3 -382 18 -475 9 -63 17 -118 17 -123 0 -15 -283 -145
-372 -171 -125 -36 -228 -42 -372 -21 -68 10 -144 15 -175 12 -31 -3 -116 -28
-191 -57 -74 -28 -178 -64 -230 -80 -82 -25 -90 -29 -55 -29 53 -1 248 49 362
93 128 49 146 51 233 27 196 -55 459 -9 745 128 131 63 181 101 170 129 -14
36 -56 234 -70 334 -19 131 -19 384 0 513 82 575 439 1096 942 1376 196 108
467 195 681 218 746 80 1410 -255 1811 -911 100 -165 197 -427 227 -618 36
-224 28 -560 -17 -762 -29 -131 -30 -128 49 -165 37 -18 130 -65 207 -105 277
-144 514 -190 719 -138 43 11 90 20 103 20 14 0 76 -20 140 -45 63 -25 120
-45 126 -45 27 0 -25 31 -117 71 l-100 42 -105 -7 c-59 -4 -133 -10 -166 -14
-154 -18 -317 23 -543 135 -98 49 -143 77 -173 111 l-42 44 6 112 c4 61 11
147 16 191 20 164 9 458 -25 645 -51 287 -208 603 -426 857 -233 272 -575 493
-947 614 -131 42 -173 51 -275 59 -137 11 -299 11 -461 0z"/>
<path d="M3245 3621 c-48 -22 -69 -44 -90 -94 -14 -34 -22 -147 -9 -147 5 0
250 104 307 130 37 18 34 42 -8 74 -75 58 -133 68 -200 37z"/>
<path d="M3333 3301 c-51 -9 -95 -20 -99 -24 -4 -3 8 -23 25 -42 18 -20 34
-49 38 -65 8 -43 53 -53 53 -11 0 21 49 99 78 125 25 21 28 37 10 35 -7 -1
-54 -9 -105 -18z"/>
<path d="M2021 2765 c1 -208 6 -256 26 -262 22 -8 32 34 39 157 l7 122 81 -88
c44 -49 107 -116 139 -149 l58 -60 -3 210 c-4 242 -16 286 -62 239 -13 -12
-16 -40 -16 -135 0 -65 -3 -119 -7 -118 -5 0 -42 38 -83 84 -41 47 -99 110
-127 142 l-53 58 1 -200z"/>
<path d="M2698 2941 c-45 -15 -83 -47 -122 -104 -48 -69 -57 -136 -28 -193 24
-46 83 -105 129 -128 64 -32 157 -16 231 41 90 68 97 229 14 316 -55 58 -158
89 -224 68z m109 -81 c18 0 82 -59 99 -91 25 -49 18 -85 -25 -128 -109 -109
-271 -56 -271 89 0 32 7 48 33 76 34 37 99 67 132 59 11 -3 25 -5 32 -5z"/>
<path d="M3211 2873 c-7 -43 -23 -135 -37 -205 -27 -139 -29 -164 -14 -173 17
-11 51 16 66 50 7 19 17 73 20 121 l7 87 21 -25 c12 -13 36 -46 54 -72 18 -26
38 -46 45 -43 7 2 28 30 47 62 20 31 40 57 45 57 5 -1 19 -48 30 -105 20 -103
35 -137 61 -137 25 0 32 33 23 95 -13 81 -70 337 -79 354 -7 14 -25 -13 -90
-136 -18 -35 -36 -63 -40 -63 -12 0 -35 32 -89 123 -29 48 -54 87 -55 87 -2 0
-9 -35 -15 -77z"/>
<path d="M3851 2829 c-102 -216 -142 -339 -110 -339 12 0 60 49 97 99 21 27
30 31 71 31 56 0 84 -18 111 -70 40 -78 94 -76 71 2 -22 75 -157 377 -176 397
-3 2 -31 -52 -64 -120z"/>
<path d="M4290 2749 c0 -217 6 -251 47 -257 39 -6 181 39 224 70 98 71 104
217 11 313 -50 51 -91 67 -194 73 l-88 5 0 -204z m212 95 c34 -18 52 -71 46
-141 -6 -68 -44 -111 -108 -123 -86 -16 -100 4 -100 140 0 98 10 136 37 143
27 7 94 -4 125 -19z"/>
<path d="M3284 2255 c-20 -30 -11 -62 21 -77 52 -23 99 46 59 86 -23 24 -61
20 -80 -9z"/>
<path d="M3878 2269 c-32 -18 -20 -89 14 -89 55 0 79 54 36 84 -26 19 -27 19
-50 5z"/>
<path d="M4485 2094 c-16 -9 -72 -49 -123 -87 -52 -39 -177 -121 -280 -182
-189 -112 -227 -143 -155 -123 98 26 282 127 453 248 170 121 215 133 269 78
30 -31 33 -32 43 -14 9 17 21 18 183 11 171 -7 203 -3 171 25 -31 25 -200 51
-366 56 -142 4 -169 2 -195 -12z"/>
<path d="M1714 2050 c-135 -70 -145 -96 -29 -79 101 14 107 11 145 -77 44 -99
85 -161 121 -180 16 -8 29 -12 29 -8 0 3 -20 33 -45 66 -52 69 -75 137 -75
220 0 111 -25 121 -146 58z"/>
<path d="M1915 2050 c9 -15 163 -117 277 -184 179 -105 450 -227 467 -211 10
10 -25 32 -184 112 -82 42 -215 113 -295 158 -220 125 -283 154 -265 125z"/>
<path d="M3320 1776 c-58 -22 -155 -73 -169 -90 -22 -27 19 -20 119 19 98 38
142 42 310 25 47 -4 87 -6 88 -5 2 2 -39 17 -92 34 -105 34 -194 40 -256 17z"/>
<path d="M1171 1565 c-46 -24 -91 -51 -100 -59 -14 -15 -13 -16 11 -16 53 0
188 79 188 111 0 15 -11 11 -99 -36z"/>
<path d="M1941 1549 c-49 -33 -95 -66 -100 -73 -22 -26 266 -99 462 -117 60
-6 111 -9 113 -6 2 2 -44 14 -104 26 -129 27 -277 68 -311 86 l-25 13 40 20
c56 28 78 56 70 87 -10 40 -45 31 -145 -36z"/>
<path d="M3732 1594 c-54 -20 -45 -34 23 -34 29 0 82 -9 117 -21 37 -12 100
-22 153 -24 l90 -4 -50 15 c-27 8 -86 28 -130 46 -96 37 -146 42 -203 22z"/>
<path d="M4610 1602 c0 -5 14 -18 30 -30 17 -13 30 -31 30 -42 0 -12 10 -21
30 -25 76 -17 41 -37 -132 -76 -147 -33 -197 -54 -108 -45 72 8 235 47 385 94
l120 37 -95 5 c-90 5 -99 8 -164 48 -67 41 -96 51 -96 34z"/>
<path d="M2404 1501 c71 -74 345 -151 591 -166 50 -3 86 -3 80 0 -5 3 -145 39
-310 80 -185 46 -310 83 -327 95 -15 11 -35 20 -44 20 -14 0 -12 -6 10 -29z"/>
<path d="M67 1423 c-49 -19 -67 -30 -67 -44 0 -17 3 -17 71 2 86 24 112 36
106 52 -6 19 -38 16 -110 -10z"/>
<path d="M4040 1388 c-68 -12 -80 -20 -45 -28 44 -11 283 -12 289 -1 5 8 -64
22 -164 34 -19 2 -55 0 -80 -5z"/>
<path d="M3730 1365 c-8 -2 -55 -9 -105 -16 -73 -9 -85 -14 -66 -21 30 -11
177 5 241 26 l45 14 -50 0 c-27 0 -57 -2 -65 -3z"/>
<path d="M1213 1350 c-34 -3 -64 -8 -68 -11 -11 -12 146 -21 229 -13 65 6 75
9 51 15 -46 11 -143 15 -212 9z"/>
<path d="M4190 1307 c3 -3 57 -11 120 -17 62 -7 123 -18 134 -25 34 -22 716
-75 946 -75 125 1 99 14 -55 29 -161 16 -229 29 -273 51 -33 16 -75 19 -387
24 -192 4 -381 9 -420 13 -38 3 -68 3 -65 0z"/>
<path d="M1955 1200 c-13 -5 26 -9 105 -9 84 -1 120 2 110 9 -18 12 -187 12
-215 0z"/>
<path d="M2665 1046 c149 -13 308 -26 355 -30 l85 -5 -55 14 c-74 18 -259 34
-476 40 l-179 4 270 -23z"/>
<path d="M3170 1008 c0 -18 45 -32 165 -53 181 -31 425 -46 425 -27 0 5 -71
16 -157 26 -153 17 -364 49 -410 62 -16 5 -23 2 -23 -8z"/>
<path d="M4203 903 c86 -2 228 -2 315 0 86 1 15 3 -158 3 -173 0 -244 -2 -157
-3z"/>
</g>
</svg>
