<svg width="512" height="512" viewBox="0 0 512 512" style="color:currentColor" xmlns="http://www.w3.org/2000/svg" class="h-full w-full"><rect width="512" height="512" x="0" y="0" rx="30" fill="transparent" stroke="transparent" stroke-width="0" stroke-opacity="100%" paint-order="stroke"></rect><svg width="325px" height="325px" viewBox="0 0 24 24" fill="currentColor" x="93.5" y="93.5" role="img" style="display:inline-block;vertical-align:middle" xmlns="http://www.w3.org/2000/svg"><g fill="currentColor"><path fill="currentColor" fill-rule="evenodd" d="M3.25 10.03c0-2.7 2.37-4.78 5.15-4.78c1.433 0 2.695.672 3.6 1.542c.905-.87 2.166-1.542 3.6-1.542c2.78 0 5.15 2.08 5.15 4.78c0 1.85-.789 3.476-1.882 4.852c-1.09 1.372-2.518 2.537-3.884 3.484c-.523.362-1.05.695-1.534.941c-.454.231-.975.443-1.45.443s-.996-.212-1.45-.443a13.795 13.795 0 0 1-1.533-.941c-1.367-.947-2.794-2.112-3.885-3.484C4.039 13.506 3.25 11.88 3.25 10.03ZM8.4 6.75c-2.08 0-3.65 1.53-3.65 3.28c0 1.403.596 2.71 1.556 3.918c.962 1.21 2.257 2.279 3.565 3.185c.495.343.96.634 1.36.838c.428.218.676.279.769.279c.093 0 .341-.061.77-.28a12.35 12.35 0 0 0 1.36-.837c1.307-.906 2.602-1.974 3.564-3.185c.96-1.208 1.556-2.515 1.556-3.918c0-1.75-1.57-3.28-3.65-3.28c-1.194 0-2.31.713-3.005 1.619a.75.75 0 0 1-1.19 0C10.71 7.463 9.595 6.75 8.4 6.75Z" clip-rule="evenodd"/></g></svg></svg>